# xmcd CD database file
# Copyright (C) 1993-1996 Ti Kan
#
# Track frame offsets:
# 150
# 14667
# 27870
# 37447
# 51025
# 65555
# 77032
# 88595
# 99832
# 112580
# 123450
# 135630
# 149742
# 161515
#
# Disc length: 2358 seconds
#
# Revision: 0
# Processed by: cddbd v1.4b41PL1 Copyright (c) Steve Scherf et al.
# Submitted via: inCDius 1.1b5
#
DISCID=bd09340e
DTITLE=George Jones - George Jones 14 Greats
DYEAR=1900
DGENRE=
TTITLE0=If Drinkin' Don't Kill Me (Your Memory Will)
TTITLE1=Hello Darlin'
TTITLE2=Lonely Street
TTITLE3=Almost Persuaded
TTITLE4=Where Could I Go
TTITLE5=Hangin' On To One and Hangin' 'Round The Other
TTITLE6=Talk Back Trembling Lips
TTITLE7=Swinging Doors
TTITLE8=Don't Be Angry
TTITLE9=Once A Day
TTITLE10=Who'll Turn Out The Lights
TTITLE11=All I Have To Offer You
TTITLE12=The Shoe Goes On The Other Foot Tonight
TTITLE13=After You
EXTD=
EXTT0=
EXTT1=
EXTT2=
EXTT3=
EXTT4=
EXTT5=
EXTT6=
EXTT7=
EXTT8=
EXTT9=
EXTT10=
EXTT11=
EXTT12=
EXTT13=
PLAYORDER=
